[{"pitch": 74, "start_time": 0.0, "duration": 0.5, "velocity": 92, "mute": false}, {"pitch": 71, "start_time": 0.5, "duration": 0.5, "velocity": 92, "mute": false}, {"pitch": 67, "start_time": 1.0, "duration": 0.5, "velocity": 92, "mute": false}, {"pitch": 71, "start_time": 1.5, "duration": 0.5, "velocity": 92, "mute": false}, {"pitch": 74, "start_time": 2.0, "duration": 0.5, "velocity": 92, "mute": false}, {"pitch": 71, "start_time": 2.5, "duration": 0.5, "velocity": 92, "mute": false}, {"pitch": 67, "start_time": 3.0, "duration": 0.5, "velocity": 92, "mute": false}, {"pitch": 71, "start_time": 3.5, "duration": 0.5, "velocity": 92, "mute": false}, {"pitch": 81, "start_time": 4.0, "duration": 0.5, "velocity": 92, "mute": false}, {"pitch": 78, "start_time": 4.5, "duration": 0.5, "velocity": 92, "mute": false}, {"pitch": 74, "start_time": 5.0, "duration": 0.5, "velocity": 92, "mute": false}, {"pitch": 78, "start_time": 5.5, "duration": 0.5, "velocity": 92, "mute": false}, {"pitch": 81, "start_time": 6.0, "duration": 0.5, "velocity": 92, "mute": false}, {"pitch": 78, "start_time": 6.5, "duration": 0.5, "velocity": 92, "mute": false}, {"pitch": 74, "start_time": 7.0, "duration": 0.5, "velocity": 92, "mute": false}, {"pitch": 78, "start_time": 7.5, "duration": 0.5, "velocity": 92, "mute": false}, {"pitch": 83, "start_time": 8.0, "duration": 0.5, "velocity": 92, "mute": false}, {"pitch": 79, "start_time": 8.5, "duration": 0.5, "velocity": 92, "mute": false}, {"pitch": 76, "start_time": 9.0, "duration": 0.5, "velocity": 92, "mute": false}, {"pitch": 79, "start_time": 9.5, "duration": 0.5, "velocity": 92, "mute": false}, {"pitch": 83, "start_time": 10.0, "duration": 0.5, "velocity": 92, "mute": false}, {"pitch": 79, "start_time": 10.5, "duration": 0.5, "velocity": 92, "mute": false}, {"pitch": 76, "start_time": 11.0, "duration": 0.5, "velocity": 92, "mute": false}, {"pitch": 79, "start_time": 11.5, "duration": 0.5, "velocity": 92, "mute": false}, {"pitch": 78, "start_time": 12.0, "duration": 0.5, "velocity": 92, "mute": false}, {"pitch": 74, "start_time": 12.5, "duration": 0.5, "velocity": 92, "mute": false}, {"pitch": 71, "start_time": 13.0, "duration": 0.5, "velocity": 92, "mute": false}, {"pitch": 74, "start_time": 13.5, "duration": 0.5, "velocity": 92, "mute": false}, {"pitch": 78, "start_time": 14.0, "duration": 0.5, "velocity": 92, "mute": false}, {"pitch": 74, "start_time": 14.5, "duration": 0.5, "velocity": 92, "mute": false}, {"pitch": 71, "start_time": 15.0, "duration": 0.5, "velocity": 92, "mute": false}, {"pitch": 74, "start_time": 15.5, "duration": 0.5, "velocity": 92, "mute": false}, {"pitch": 79, "start_time": 16.0, "duration": 0.5, "velocity": 92, "mute": false}, {"pitch": 76, "start_time": 16.5, "duration": 0.5, "velocity": 92, "mute": false}, {"pitch": 72, "start_time": 17.0, "duration": 0.5, "velocity": 92, "mute": false}, {"pitch": 76, "start_time": 17.5, "duration": 0.5, "velocity": 92, "mute": false}, {"pitch": 79, "start_time": 18.0, "duration": 0.5, "velocity": 92, "mute": false}, {"pitch": 76, "start_time": 18.5, "duration": 0.5, "velocity": 92, "mute": false}, {"pitch": 72, "start_time": 19.0, "duration": 0.5, "velocity": 92, "mute": false}, {"pitch": 76, "start_time": 19.5, "duration": 0.5, "velocity": 92, "mute": false}, {"pitch": 74, "start_time": 20.0, "duration": 0.5, "velocity": 92, "mute": false}, {"pitch": 71, "start_time": 20.5, "duration": 0.5, "velocity": 92, "mute": false}, {"pitch": 67, "start_time": 21.0, "duration": 0.5, "velocity": 92, "mute": false}, {"pitch": 71, "start_time": 21.5, "duration": 0.5, "velocity": 92, "mute": false}, {"pitch": 74, "start_time": 22.0, "duration": 0.5, "velocity": 92, "mute": false}, {"pitch": 71, "start_time": 22.5, "duration": 0.5, "velocity": 92, "mute": false}, {"pitch": 67, "start_time": 23.0, "duration": 0.5, "velocity": 92, "mute": false}, {"pitch": 71, "start_time": 23.5, "duration": 0.5, "velocity": 92, "mute": false}, {"pitch": 76, "start_time": 24.0, "duration": 0.5, "velocity": 92, "mute": false}, {"pitch": 72, "start_time": 24.5, "duration": 0.5, "velocity": 92, "mute": false}, {"pitch": 69, "start_time": 25.0, "duration": 0.5, "velocity": 92, "mute": false}, {"pitch": 72, "start_time": 25.5, "duration": 0.5, "velocity": 92, "mute": false}, {"pitch": 76, "start_time": 26.0, "duration": 0.5, "velocity": 92, "mute": false}, {"pitch": 72, "start_time": 26.5, "duration": 0.5, "velocity": 92, "mute": false}, {"pitch": 69, "start_time": 27.0, "duration": 0.5, "velocity": 92, "mute": false}, {"pitch": 72, "start_time": 27.5, "duration": 0.5, "velocity": 92, "mute": false}, {"pitch": 81, "start_time": 28.0, "duration": 0.5, "velocity": 92, "mute": false}, {"pitch": 78, "start_time": 28.5, "duration": 0.5, "velocity": 92, "mute": false}, {"pitch": 74, "start_time": 29.0, "duration": 0.5, "velocity": 92, "mute": false}, {"pitch": 78, "start_time": 29.5, "duration": 0.5, "velocity": 92, "mute": false}, {"pitch": 81, "start_time": 30.0, "duration": 0.5, "velocity": 92, "mute": false}, {"pitch": 78, "start_time": 30.5, "duration": 0.5, "velocity": 92, "mute": false}, {"pitch": 74, "start_time": 31.0, "duration": 0.5, "velocity": 92, "mute": false}, {"pitch": 78, "start_time": 31.5, "duration": 0.5, "velocity": 92, "mute": false}, {"pitch": 74, "start_time": 32.0, "duration": 0.5, "velocity": 92, "mute": false}, {"pitch": 71, "start_time": 32.5, "duration": 0.5, "velocity": 92, "mute": false}, {"pitch": 67, "start_time": 33.0, "duration": 0.5, "velocity": 92, "mute": false}, {"pitch": 71, "start_time": 33.5, "duration": 0.5, "velocity": 92, "mute": false}, {"pitch": 74, "start_time": 34.0, "duration": 0.5, "velocity": 92, "mute": false}, {"pitch": 71, "start_time": 34.5, "duration": 0.5, "velocity": 92, "mute": false}, {"pitch": 67, "start_time": 35.0, "duration": 0.5, "velocity": 92, "mute": false}, {"pitch": 71, "start_time": 35.5, "duration": 0.5, "velocity": 92, "mute": false}, {"pitch": 81, "start_time": 36.0, "duration": 0.5, "velocity": 92, "mute": false}, {"pitch": 78, "start_time": 36.5, "duration": 0.5, "velocity": 92, "mute": false}, {"pitch": 74, "start_time": 37.0, "duration": 0.5, "velocity": 92, "mute": false}, {"pitch": 78, "start_time": 37.5, "duration": 0.5, "velocity": 92, "mute": false}, {"pitch": 81, "start_time": 38.0, "duration": 0.5, "velocity": 92, "mute": false}, {"pitch": 78, "start_time": 38.5, "duration": 0.5, "velocity": 92, "mute": false}, {"pitch": 74, "start_time": 39.0, "duration": 0.5, "velocity": 92, "mute": false}, {"pitch": 78, "start_time": 39.5, "duration": 0.5, "velocity": 92, "mute": false}, {"pitch": 83, "start_time": 40.0, "duration": 0.5, "velocity": 92, "mute": false}, {"pitch": 79, "start_time": 40.5, "duration": 0.5, "velocity": 92, "mute": false}, {"pitch": 76, "start_time": 41.0, "duration": 0.5, "velocity": 92, "mute": false}, {"pitch": 79, "start_time": 41.5, "duration": 0.5, "velocity": 92, "mute": false}, {"pitch": 83, "start_time": 42.0, "duration": 0.5, "velocity": 92, "mute": false}, {"pitch": 79, "start_time": 42.5, "duration": 0.5, "velocity": 92, "mute": false}, {"pitch": 76, "start_time": 43.0, "duration": 0.5, "velocity": 92, "mute": false}, {"pitch": 79, "start_time": 43.5, "duration": 0.5, "velocity": 92, "mute": false}, {"pitch": 78, "start_time": 44.0, "duration": 0.5, "velocity": 92, "mute": false}, {"pitch": 74, "start_time": 44.5, "duration": 0.5, "velocity": 92, "mute": false}, {"pitch": 71, "start_time": 45.0, "duration": 0.5, "velocity": 92, "mute": false}, {"pitch": 74, "start_time": 45.5, "duration": 0.5, "velocity": 92, "mute": false}, {"pitch": 78, "start_time": 46.0, "duration": 0.5, "velocity": 92, "mute": false}, {"pitch": 74, "start_time": 46.5, "duration": 0.5, "velocity": 92, "mute": false}, {"pitch": 71, "start_time": 47.0, "duration": 0.5, "velocity": 92, "mute": false}, {"pitch": 74, "start_time": 47.5, "duration": 0.5, "velocity": 92, "mute": false}, {"pitch": 79, "start_time": 48.0, "duration": 0.5, "velocity": 92, "mute": false}, {"pitch": 76, "start_time": 48.5, "duration": 0.5, "velocity": 92, "mute": false}, {"pitch": 72, "start_time": 49.0, "duration": 0.5, "velocity": 92, "mute": false}, {"pitch": 76, "start_time": 49.5, "duration": 0.5, "velocity": 92, "mute": false}, {"pitch": 79, "start_time": 50.0, "duration": 0.5, "velocity": 92, "mute": false}, {"pitch": 76, "start_time": 50.5, "duration": 0.5, "velocity": 92, "mute": false}, {"pitch": 72, "start_time": 51.0, "duration": 0.5, "velocity": 92, "mute": false}, {"pitch": 76, "start_time": 51.5, "duration": 0.5, "velocity": 92, "mute": false}, {"pitch": 74, "start_time": 52.0, "duration": 0.5, "velocity": 92, "mute": false}, {"pitch": 71, "start_time": 52.5, "duration": 0.5, "velocity": 92, "mute": false}, {"pitch": 67, "start_time": 53.0, "duration": 0.5, "velocity": 92, "mute": false}, {"pitch": 71, "start_time": 53.5, "duration": 0.5, "velocity": 92, "mute": false}, {"pitch": 74, "start_time": 54.0, "duration": 0.5, "velocity": 92, "mute": false}, {"pitch": 71, "start_time": 54.5, "duration": 0.5, "velocity": 92, "mute": false}, {"pitch": 67, "start_time": 55.0, "duration": 0.5, "velocity": 92, "mute": false}, {"pitch": 71, "start_time": 55.5, "duration": 0.5, "velocity": 92, "mute": false}, {"pitch": 76, "start_time": 56.0, "duration": 0.5, "velocity": 92, "mute": false}, {"pitch": 72, "start_time": 56.5, "duration": 0.5, "velocity": 92, "mute": false}, {"pitch": 69, "start_time": 57.0, "duration": 0.5, "velocity": 92, "mute": false}, {"pitch": 72, "start_time": 57.5, "duration": 0.5, "velocity": 92, "mute": false}, {"pitch": 76, "start_time": 58.0, "duration": 0.5, "velocity": 92, "mute": false}, {"pitch": 72, "start_time": 58.5, "duration": 0.5, "velocity": 92, "mute": false}, {"pitch": 69, "start_time": 59.0, "duration": 0.5, "velocity": 92, "mute": false}, {"pitch": 72, "start_time": 59.5, "duration": 0.5, "velocity": 92, "mute": false}, {"pitch": 81, "start_time": 60.0, "duration": 0.5, "velocity": 92, "mute": false}, {"pitch": 78, "start_time": 60.5, "duration": 0.5, "velocity": 92, "mute": false}, {"pitch": 74, "start_time": 61.0, "duration": 0.5, "velocity": 92, "mute": false}, {"pitch": 78, "start_time": 61.5, "duration": 0.5, "velocity": 92, "mute": false}, {"pitch": 81, "start_time": 62.0, "duration": 0.5, "velocity": 92, "mute": false}, {"pitch": 78, "start_time": 62.5, "duration": 0.5, "velocity": 92, "mute": false}, {"pitch": 74, "start_time": 63.0, "duration": 0.5, "velocity": 92, "mute": false}, {"pitch": 78, "start_time": 63.5, "duration": 0.5, "velocity": 92, "mute": false}, {"pitch": 78, "start_time": 64.0, "duration": 0.5, "velocity": 92, "mute": false}, {"pitch": 74, "start_time": 64.5, "duration": 0.5, "velocity": 92, "mute": false}, {"pitch": 71, "start_time": 65.0, "duration": 0.5, "velocity": 92, "mute": false}, {"pitch": 74, "start_time": 65.5, "duration": 0.5, "velocity": 92, "mute": false}, {"pitch": 78, "start_time": 66.0, "duration": 0.5, "velocity": 92, "mute": false}, {"pitch": 74, "start_time": 66.5, "duration": 0.5, "velocity": 92, "mute": false}, {"pitch": 71, "start_time": 67.0, "duration": 0.5, "velocity": 92, "mute": false}, {"pitch": 74, "start_time": 67.5, "duration": 0.5, "velocity": 92, "mute": false}, {"pitch": 83, "start_time": 68.0, "duration": 0.5, "velocity": 92, "mute": false}, {"pitch": 79, "start_time": 68.5, "duration": 0.5, "velocity": 92, "mute": false}, {"pitch": 76, "start_time": 69.0, "duration": 0.5, "velocity": 92, "mute": false}, {"pitch": 79, "start_time": 69.5, "duration": 0.5, "velocity": 92, "mute": false}, {"pitch": 83, "start_time": 70.0, "duration": 0.5, "velocity": 92, "mute": false}, {"pitch": 79, "start_time": 70.5, "duration": 0.5, "velocity": 92, "mute": false}, {"pitch": 76, "start_time": 71.0, "duration": 0.5, "velocity": 92, "mute": false}, {"pitch": 79, "start_time": 71.5, "duration": 0.5, "velocity": 92, "mute": false}, {"pitch": 79, "start_time": 72.0, "duration": 0.5, "velocity": 92, "mute": false}, {"pitch": 76, "start_time": 72.5, "duration": 0.5, "velocity": 92, "mute": false}, {"pitch": 72, "start_time": 73.0, "duration": 0.5, "velocity": 92, "mute": false}, {"pitch": 76, "start_time": 73.5, "duration": 0.5, "velocity": 92, "mute": false}, {"pitch": 79, "start_time": 74.0, "duration": 0.5, "velocity": 92, "mute": false}, {"pitch": 76, "start_time": 74.5, "duration": 0.5, "velocity": 92, "mute": false}, {"pitch": 72, "start_time": 75.0, "duration": 0.5, "velocity": 92, "mute": false}, {"pitch": 76, "start_time": 75.5, "duration": 0.5, "velocity": 92, "mute": false}, {"pitch": 81, "start_time": 76.0, "duration": 0.5, "velocity": 92, "mute": false}, {"pitch": 78, "start_time": 76.5, "duration": 0.5, "velocity": 92, "mute": false}, {"pitch": 74, "start_time": 77.0, "duration": 0.5, "velocity": 92, "mute": false}, {"pitch": 78, "start_time": 77.5, "duration": 0.5, "velocity": 92, "mute": false}, {"pitch": 81, "start_time": 78.0, "duration": 0.5, "velocity": 92, "mute": false}, {"pitch": 78, "start_time": 78.5, "duration": 0.5, "velocity": 92, "mute": false}, {"pitch": 74, "start_time": 79.0, "duration": 0.5, "velocity": 92, "mute": false}, {"pitch": 78, "start_time": 79.5, "duration": 0.5, "velocity": 92, "mute": false}, {"pitch": 78, "start_time": 80.0, "duration": 0.5, "velocity": 92, "mute": false}, {"pitch": 74, "start_time": 80.5, "duration": 0.5, "velocity": 92, "mute": false}, {"pitch": 71, "start_time": 81.0, "duration": 0.5, "velocity": 92, "mute": false}, {"pitch": 74, "start_time": 81.5, "duration": 0.5, "velocity": 92, "mute": false}, {"pitch": 78, "start_time": 82.0, "duration": 0.5, "velocity": 92, "mute": false}, {"pitch": 74, "start_time": 82.5, "duration": 0.5, "velocity": 92, "mute": false}, {"pitch": 71, "start_time": 83.0, "duration": 0.5, "velocity": 92, "mute": false}, {"pitch": 74, "start_time": 83.5, "duration": 0.5, "velocity": 92, "mute": false}, {"pitch": 79, "start_time": 84.0, "duration": 0.5, "velocity": 92, "mute": false}, {"pitch": 76, "start_time": 84.5, "duration": 0.5, "velocity": 92, "mute": false}, {"pitch": 72, "start_time": 85.0, "duration": 0.5, "velocity": 92, "mute": false}, {"pitch": 76, "start_time": 85.5, "duration": 0.5, "velocity": 92, "mute": false}, {"pitch": 79, "start_time": 86.0, "duration": 0.5, "velocity": 92, "mute": false}, {"pitch": 76, "start_time": 86.5, "duration": 0.5, "velocity": 92, "mute": false}, {"pitch": 72, "start_time": 87.0, "duration": 0.5, "velocity": 92, "mute": false}, {"pitch": 76, "start_time": 87.5, "duration": 0.5, "velocity": 92, "mute": false}, {"pitch": 76, "start_time": 88.0, "duration": 0.5, "velocity": 92, "mute": false}, {"pitch": 72, "start_time": 88.5, "duration": 0.5, "velocity": 92, "mute": false}, {"pitch": 69, "start_time": 89.0, "duration": 0.5, "velocity": 92, "mute": false}, {"pitch": 72, "start_time": 89.5, "duration": 0.5, "velocity": 92, "mute": false}, {"pitch": 76, "start_time": 90.0, "duration": 0.5, "velocity": 92, "mute": false}, {"pitch": 72, "start_time": 90.5, "duration": 0.5, "velocity": 92, "mute": false}, {"pitch": 69, "start_time": 91.0, "duration": 0.5, "velocity": 92, "mute": false}, {"pitch": 72, "start_time": 91.5, "duration": 0.5, "velocity": 92, "mute": false}, {"pitch": 81, "start_time": 92.0, "duration": 0.5, "velocity": 92, "mute": false}, {"pitch": 78, "start_time": 92.5, "duration": 0.5, "velocity": 92, "mute": false}, {"pitch": 74, "start_time": 93.0, "duration": 0.5, "velocity": 92, "mute": false}, {"pitch": 78, "start_time": 93.5, "duration": 0.5, "velocity": 92, "mute": false}, {"pitch": 81, "start_time": 94.0, "duration": 0.5, "velocity": 92, "mute": false}, {"pitch": 78, "start_time": 94.5, "duration": 0.5, "velocity": 92, "mute": false}, {"pitch": 74, "start_time": 95.0, "duration": 0.5, "velocity": 92, "mute": false}, {"pitch": 78, "start_time": 95.5, "duration": 0.5, "velocity": 92, "mute": false}, {"pitch": 74, "start_time": 96.0, "duration": 0.5, "velocity": 92, "mute": false}, {"pitch": 71, "start_time": 96.5, "duration": 0.5, "velocity": 92, "mute": false}, {"pitch": 67, "start_time": 97.0, "duration": 0.5, "velocity": 92, "mute": false}, {"pitch": 71, "start_time": 97.5, "duration": 0.5, "velocity": 92, "mute": false}, {"pitch": 74, "start_time": 98.0, "duration": 0.5, "velocity": 92, "mute": false}, {"pitch": 71, "start_time": 98.5, "duration": 0.5, "velocity": 92, "mute": false}, {"pitch": 67, "start_time": 99.0, "duration": 0.5, "velocity": 92, "mute": false}, {"pitch": 71, "start_time": 99.5, "duration": 0.5, "velocity": 92, "mute": false}, {"pitch": 81, "start_time": 100.0, "duration": 0.5, "velocity": 92, "mute": false}, {"pitch": 78, "start_time": 100.5, "duration": 0.5, "velocity": 92, "mute": false}, {"pitch": 74, "start_time": 101.0, "duration": 0.5, "velocity": 92, "mute": false}, {"pitch": 78, "start_time": 101.5, "duration": 0.5, "velocity": 92, "mute": false}, {"pitch": 81, "start_time": 102.0, "duration": 0.5, "velocity": 92, "mute": false}, {"pitch": 78, "start_time": 102.5, "duration": 0.5, "velocity": 92, "mute": false}, {"pitch": 74, "start_time": 103.0, "duration": 0.5, "velocity": 92, "mute": false}, {"pitch": 78, "start_time": 103.5, "duration": 0.5, "velocity": 92, "mute": false}, {"pitch": 83, "start_time": 104.0, "duration": 0.5, "velocity": 92, "mute": false}, {"pitch": 79, "start_time": 104.5, "duration": 0.5, "velocity": 92, "mute": false}, {"pitch": 76, "start_time": 105.0, "duration": 0.5, "velocity": 92, "mute": false}, {"pitch": 79, "start_time": 105.5, "duration": 0.5, "velocity": 92, "mute": false}, {"pitch": 83, "start_time": 106.0, "duration": 0.5, "velocity": 92, "mute": false}, {"pitch": 79, "start_time": 106.5, "duration": 0.5, "velocity": 92, "mute": false}, {"pitch": 76, "start_time": 107.0, "duration": 0.5, "velocity": 92, "mute": false}, {"pitch": 79, "start_time": 107.5, "duration": 0.5, "velocity": 92, "mute": false}, {"pitch": 78, "start_time": 108.0, "duration": 0.5, "velocity": 92, "mute": false}, {"pitch": 74, "start_time": 108.5, "duration": 0.5, "velocity": 92, "mute": false}, {"pitch": 71, "start_time": 109.0, "duration": 0.5, "velocity": 92, "mute": false}, {"pitch": 74, "start_time": 109.5, "duration": 0.5, "velocity": 92, "mute": false}, {"pitch": 78, "start_time": 110.0, "duration": 0.5, "velocity": 92, "mute": false}, {"pitch": 74, "start_time": 110.5, "duration": 0.5, "velocity": 92, "mute": false}, {"pitch": 71, "start_time": 111.0, "duration": 0.5, "velocity": 92, "mute": false}, {"pitch": 74, "start_time": 111.5, "duration": 0.5, "velocity": 92, "mute": false}, {"pitch": 79, "start_time": 112.0, "duration": 0.5, "velocity": 92, "mute": false}, {"pitch": 76, "start_time": 112.5, "duration": 0.5, "velocity": 92, "mute": false}, {"pitch": 72, "start_time": 113.0, "duration": 0.5, "velocity": 92, "mute": false}, {"pitch": 76, "start_time": 113.5, "duration": 0.5, "velocity": 92, "mute": false}, {"pitch": 79, "start_time": 114.0, "duration": 0.5, "velocity": 92, "mute": false}, {"pitch": 76, "start_time": 114.5, "duration": 0.5, "velocity": 92, "mute": false}, {"pitch": 72, "start_time": 115.0, "duration": 0.5, "velocity": 92, "mute": false}, {"pitch": 76, "start_time": 115.5, "duration": 0.5, "velocity": 92, "mute": false}, {"pitch": 74, "start_time": 116.0, "duration": 0.5, "velocity": 92, "mute": false}, {"pitch": 71, "start_time": 116.5, "duration": 0.5, "velocity": 92, "mute": false}, {"pitch": 67, "start_time": 117.0, "duration": 0.5, "velocity": 92, "mute": false}, {"pitch": 71, "start_time": 117.5, "duration": 0.5, "velocity": 92, "mute": false}, {"pitch": 74, "start_time": 118.0, "duration": 0.5, "velocity": 92, "mute": false}, {"pitch": 71, "start_time": 118.5, "duration": 0.5, "velocity": 92, "mute": false}, {"pitch": 67, "start_time": 119.0, "duration": 0.5, "velocity": 92, "mute": false}, {"pitch": 71, "start_time": 119.5, "duration": 0.5, "velocity": 92, "mute": false}, {"pitch": 76, "start_time": 120.0, "duration": 0.5, "velocity": 92, "mute": false}, {"pitch": 72, "start_time": 120.5, "duration": 0.5, "velocity": 92, "mute": false}, {"pitch": 69, "start_time": 121.0, "duration": 0.5, "velocity": 92, "mute": false}, {"pitch": 72, "start_time": 121.5, "duration": 0.5, "velocity": 92, "mute": false}, {"pitch": 76, "start_time": 122.0, "duration": 0.5, "velocity": 92, "mute": false}, {"pitch": 72, "start_time": 122.5, "duration": 0.5, "velocity": 92, "mute": false}, {"pitch": 69, "start_time": 123.0, "duration": 0.5, "velocity": 92, "mute": false}, {"pitch": 72, "start_time": 123.5, "duration": 0.5, "velocity": 92, "mute": false}, {"pitch": 74, "start_time": 124.0, "duration": 0.5, "velocity": 92, "mute": false}, {"pitch": 71, "start_time": 124.5, "duration": 0.5, "velocity": 92, "mute": false}, {"pitch": 67, "start_time": 125.0, "duration": 0.5, "velocity": 92, "mute": false}, {"pitch": 71, "start_time": 125.5, "duration": 0.5, "velocity": 92, "mute": false}, {"pitch": 74, "start_time": 126.0, "duration": 0.5, "velocity": 92, "mute": false}, {"pitch": 71, "start_time": 126.5, "duration": 0.5, "velocity": 92, "mute": false}, {"pitch": 67, "start_time": 127.0, "duration": 0.5, "velocity": 92, "mute": false}, {"pitch": 71, "start_time": 127.5, "duration": 0.5, "velocity": 92, "mute": false}]